<?xml version="1.0" encoding="UTF-8"?>
<svg id="Layer_1" xmlns="http://www.w3.org/2000/svg" version="1.1" viewBox="0 0 52 52">
  <!-- Generator: Adobe Illustrator 29.5.1, SVG Export Plug-In . SVG Version: 2.1.0 Build 141)  -->
  <defs>
    <style>
      .st0 {
        fill: #fff;
      }

      .st0, .st1, .st2 {
        fill-rule: evenodd;
      }

      .st1 {
        fill: #3cf;
      }
    </style>
  </defs>
  <path id="a" class="st1" d="M52,8.6v34.9c0,4.7-3.8,8.6-8.6,8.6H8.6c-4.7,0-8.6-3.8-8.6-8.6V8.6C0,3.8,3.8,0,8.6,0h34.9c4.7,0,8.6,3.8,8.6,8.6h0Z"/>
  <path class="st0" d="M27.5,36.9h-3.2c-.4-1.8-2-3.1-3.8-3.1s-2.6.7-3.3,1.8h0c-1.2-.6-2.2-1.4-3.1-2.3-1.1-1.1-1.7-2.1-2-2.8.7-.2,1.4-.5,1.9-1.1.7-.7,1-1.7,1-2.7v-2.3c0-2.8.9-5.5,2.6-7.6,2.4-3.1,6-4.9,9.8-4.9s6.4,1.3,8.8,3.7c2.3,2.3,3.7,5.5,3.6,8.8,0,3.3-1.3,6.5-3.6,8.8-2.3,2.3-5.4,3.7-8.8,3.7"/>
  <path class="st2" d="M27.5,36.9h-3.2c-.4-1.8-2-3.1-3.8-3.1s-2.6.7-3.3,1.8h0c-1.2-.6-2.2-1.4-3.1-2.3-1.1-1.1-1.7-2.1-2-2.8.7-.2,1.4-.5,1.9-1.1.7-.7,1-1.7,1-2.7v-2.3c0-2.8.9-5.5,2.6-7.6,2.4-3.1,6-4.9,9.8-4.9s6.4,1.3,8.8,3.7c2.3,2.3,3.7,5.5,3.6,8.8,0,3.3-1.3,6.5-3.6,8.8-2.3,2.3-5.4,3.7-8.8,3.7M41.5,24.5c0-3.7-1.5-7.3-4.1-9.9-2.6-2.6-6.1-4.1-9.9-4.1s-8.2,1.9-11,5.3c-2,2.5-3,5.6-3,8.7v2.3c0,1.2-.9,2.4-2.5,2.4s-.5.2-.6.4c-.3,1,.9,3.1,2.6,4.8,1.1,1.1,2.3,2,3.7,2.7-.4,2.1,1,4.1,3.2,4.5.2,0,.4,0,.7,0,1.9,0,3.5-1.3,3.8-3.1h3.3c.4,2.2,2.7,3.7,5.2,2.9,1.1-.4,1.9-1.2,2.3-2.2.4-1,.3-2,0-2.8.9-.5,1.7-1.2,2.4-1.9,2.6-2.6,4.1-6.2,4.1-9.9"/>
  <path class="st2" d="M35.3,21.3c0-.9-.7-1.6-1.5-1.6s-1.5.7-1.5,1.6.7,1.6,1.5,1.6,1.5-.7,1.5-1.6M26,21.3c0-.9-.7-1.6-1.5-1.6s-1.5.7-1.5,1.6.7,1.6,1.5,1.6,1.5-.7,1.5-1.6M24.9,26.4c-.1-.3-.4-.4-.7-.4-.4,0-.8.4-.8.8,0,.1,0,.2,0,.3,1,2.2,3.2,3.6,5.6,3.6,2.4,0,4.6-1.4,5.6-3.6.2-.4,0-.9-.4-1,0,0-.2,0-.3,0h0c-.3,0-.6.2-.7.4-.8,1.6-2.4,2.7-4.2,2.7s-3.4-1-4.2-2.7"/>
</svg>